# xmcd
#
# Track frame offsets: 
#        150
#        11793
#        24552
#        35339
#        48977
#        60542
#        71344
#        82426
#        93490
#        106465
#        118238
#        131329
#        146129
#        157559
#        168077
#        181461
#        193320
#        204394
#        215320
#        226503
#        239218
#        252354
#        265173
#        279132
#
# Disc length: 3869 seconds
#
# Revision: 0
# Processed by: cddbd v1.5.2PL0 Copyright (c) Steve Scherf et al.
# Submitted via: ExactAudioCopy v0.90b4
#
DISCID=530f1b18
DTITLE=Charlie Louvin - Less And Less And I Don't Love You Anymore and L
DTITLE=onesome Is Me
DYEAR=2009
DGENRE=Country
TTITLE0=I Don't Love You Anymore
TTITLE1=I'll Have Made It To The Bridge
TTITLE2=Once A Day
TTITLE3=Just Between The Two Of Us
TTITLE4=I'm No Longer In Your Heart
TTITLE5=I Don't Want It
TTITLE6=Less And Less
TTITLE7=See The Big Man Cry
TTITLE8=I Think I'll Live
TTITLE9=Plenty Of Everything But You
TTITLE10=What Can Any Man Do
TTITLE11=Tall Dark Stranger
TTITLE12=Lonesome Is Me
TTITLE13=Making Plans
TTITLE14=Queen Unfaithful
TTITLE15=I Want A Happy Life
TTITLE16=As Long As There's A Sunday
TTITLE17=To Tell The Truth I Told A Lie
TTITLE18=All The Lies Are True
TTITLE19=Something's Wrong
TTITLE20=Something To Think About
TTITLE21=Two Minus One
TTITLE22=We're Still Together
TTITLE23=You Finally Said Something Good
EXTD=
EXTT0=
EXTT1=
EXTT2=
EXTT3=
EXTT4=
EXTT5=
EXTT6=
EXTT7=
EXTT8=
EXTT9=
EXTT10=
EXTT11=
EXTT12=
EXTT13=
EXTT14=
EXTT15=
EXTT16=
EXTT17=
EXTT18=
EXTT19=
EXTT20=
EXTT21=
EXTT22=
EXTT23=
PLAYORDER=
